<svg width="51" height="51" viewBox="0 0 51 51" fill="none" xmlns="http://www.w3.org/2000/svg">
<path d="M25.9858 0.978638C21.0413 0.978638 16.2078 2.4386 12.0965 5.17391C7.98531 7.90922 4.78099 11.797 2.8888 16.3457C0.996611 20.8943 0.501528 25.8995 1.46616 30.7284C2.43079 35.5572 4.81181 39.9928 8.30812 43.4741C11.8044 46.9555 16.259 49.3264 21.1085 50.2869C25.9581 51.2474 30.9847 50.7544 35.5529 48.8703C40.121 46.9862 44.0255 43.7956 46.7725 39.7019C49.5196 35.6082 50.9858 30.7954 50.9858 25.8719C50.9861 22.6028 50.3396 19.3657 49.0833 16.3454C47.8271 13.325 45.9856 10.5807 43.6641 8.26911C41.3425 5.9575 38.5865 4.12388 35.5532 2.87297C32.5199 1.62207 29.2689 0.978366 25.9858 0.978638V0.978638ZM33.9346 38.6981C33.841 38.9305 33.6986 39.1402 33.517 39.3132C33.3354 39.4863 33.1187 39.6187 32.8814 39.7016C32.6442 39.7844 32.392 39.8158 32.1416 39.7937C31.8912 39.7715 31.6484 39.6963 31.4296 39.5731L24.6429 34.3222L20.2871 38.3236C20.186 38.3979 20.0678 38.4458 19.9433 38.4627C19.8188 38.4796 19.692 38.4651 19.5746 38.4205L20.4096 30.9812L20.4363 31.0023L20.4534 30.8555C20.4534 30.8555 32.6659 19.7841 33.1634 19.3124C33.6671 18.842 33.5009 18.7399 33.5009 18.7399C33.5296 18.166 32.5971 18.7399 32.5971 18.7399L16.4158 29.1056L9.67707 26.8204C9.67707 26.8204 8.64207 26.4507 8.54457 25.6379C8.44207 24.8314 9.71079 24.3933 9.71079 24.3933L36.5033 13.7949C36.5033 13.7949 38.7058 12.8178 38.7058 14.436L33.9346 38.6981Z" fill="#B78C83"/>
</svg>
