<svg width="50" height="51" viewBox="0 0 50 51" fill="none" xmlns="http://www.w3.org/2000/svg">
<path d="M25 19.6984C23.7738 19.6984 22.575 20.0605 21.5555 20.7388C20.5359 21.4172 19.7412 22.3814 19.2719 23.5094C18.8027 24.6375 18.6799 25.8788 18.9191 27.0763C19.1584 28.2739 19.7489 29.3739 20.6159 30.2373C21.483 31.1007 22.5878 31.6886 23.7904 31.9268C24.9931 32.165 26.2397 32.0428 27.3726 31.5755C28.5055 31.1083 29.4738 30.317 30.1551 29.3018C30.8364 28.2865 31.2 27.0929 31.2 25.8719C31.2 25.0612 31.0396 24.2584 30.7281 23.5094C30.4165 22.7604 29.9598 22.0798 29.3841 21.5066C28.8083 20.9333 28.1249 20.4786 27.3726 20.1683C26.6204 19.8581 25.8142 19.6984 25 19.6984V19.6984ZM49.825 13.5995C49.8118 11.6772 49.4563 9.77237 48.775 7.97365C48.2732 6.65744 47.4968 5.46215 46.497 4.46665C45.4973 3.47115 44.2969 2.69806 42.975 2.19841C41.1686 1.51998 39.2556 1.16599 37.325 1.15289C34.1 0.978638 33.15 0.978638 25 0.978638C16.85 0.978638 15.9 0.978638 12.675 1.15289C10.7444 1.16599 8.83143 1.51998 7.025 2.19841C5.70315 2.69806 4.50273 3.47115 3.50296 4.46665C2.50319 5.46215 1.72679 6.65744 1.225 7.97365C0.543659 9.77237 0.188152 11.6772 0.175 13.5995C-1.67638e-07 16.8108 0 17.7567 0 25.8719C0 33.9871 -1.67638e-07 34.9331 0.175 38.1443C0.20191 40.0735 0.556936 41.9841 1.225 43.7951C1.72457 45.1053 2.50032 46.2937 3.5 47.2802C4.49548 48.2816 5.69847 49.0547 7.025 49.5454C8.83143 50.2239 10.7444 50.5779 12.675 50.591C15.9 50.7652 16.85 50.7652 25 50.7652C33.15 50.7652 34.1 50.7652 37.325 50.591C39.2556 50.5779 41.1686 50.2239 42.975 49.5454C44.3015 49.0547 45.5045 48.2816 46.5 47.2802C47.4997 46.2937 48.2754 45.1053 48.775 43.7951C49.4557 41.9876 49.8111 40.0747 49.825 38.1443C50 34.9331 50 33.9871 50 25.8719C50 17.7567 50 16.8108 49.825 13.5995V13.5995ZM43.475 33.5142C43.3948 35.0503 43.0655 36.5635 42.5 37.995C42.0147 39.1891 41.2932 40.2738 40.3784 41.1847C39.4636 42.0955 38.3742 42.814 37.175 43.2972C35.7238 43.8289 34.1957 44.1232 32.65 44.1685C30.675 44.1685 30.15 44.1685 25 44.1685C19.85 44.1685 19.325 44.1685 17.35 44.1685C15.8043 44.1232 14.2762 43.8289 12.825 43.2972C11.5853 42.8385 10.4657 42.1066 9.55 41.1564C8.64417 40.2634 7.94461 39.1845 7.5 37.995C6.96389 36.5514 6.67652 35.0281 6.65 33.4893C6.65 31.5227 6.65 30.9999 6.65 25.8719C6.65 20.7439 6.65 20.2212 6.65 18.2546C6.67652 16.7157 6.96389 15.1924 7.5 13.7489C7.9607 12.5144 8.69569 11.3997 9.65 10.4879C10.5508 9.59078 11.6332 8.89494 12.825 8.44662C14.2762 7.91492 15.8043 7.62069 17.35 7.57536V7.57536C19.325 7.57536 19.85 7.57536 25 7.57536C30.15 7.57536 30.675 7.57536 32.65 7.57536C34.1957 7.62069 35.7238 7.91492 37.175 8.44662C38.4147 8.90536 39.5343 9.63721 40.45 10.5874C41.3558 11.4805 42.0554 12.5593 42.5 13.7489C43.034 15.1939 43.3295 16.7155 43.375 18.2546C43.375 20.2212 43.375 20.7439 43.375 25.8719C43.375 30.9999 43.55 31.5227 43.475 33.4893V33.5142ZM39.475 14.9936C39.1773 14.1895 38.708 13.4592 38.0995 12.8533C37.4909 12.2473 36.7575 11.78 35.95 11.4836C34.8412 11.1009 33.6734 10.9155 32.5 10.936C30.55 10.936 30 10.936 25 10.936C20 10.936 19.45 10.936 17.5 10.936C16.3207 10.9474 15.1527 11.1666 14.05 11.5832C13.2548 11.8661 12.5292 12.3143 11.9215 12.898C11.3137 13.4818 10.8377 14.1876 10.525 14.9687C10.1619 16.0773 9.98457 17.2379 10 18.4039C10 20.3456 10 20.8933 10 25.8719C10 30.8506 10 31.3982 10 33.3399C10.0248 34.5129 10.2444 35.6737 10.65 36.7752C10.9477 37.5793 11.417 38.3095 12.0255 38.9155C12.6341 39.5215 13.3675 39.9888 14.175 40.2851C15.2417 40.6758 16.3641 40.8942 17.5 40.9324V40.9324C19.45 40.9324 20 40.9324 25 40.9324C30 40.9324 30.55 40.9324 32.5 40.9324C33.6793 40.9209 34.8473 40.7018 35.95 40.2851C36.7575 39.9888 37.4909 39.5215 38.0995 38.9155C38.708 38.3095 39.1773 37.5793 39.475 36.7752C39.8934 35.6772 40.1135 34.5142 40.125 33.3399C40.125 31.3982 40.125 30.8506 40.125 25.8719C40.125 20.8933 40.125 20.3456 40.125 18.4039C40.1257 17.2285 39.9053 16.0633 39.475 14.9687V14.9936ZM25 35.3812C23.7471 35.3812 22.5064 35.135 21.3492 34.6568C20.1919 34.1786 19.1408 33.4778 18.256 32.5945C17.3711 31.7111 16.6701 30.6626 16.1929 29.5091C15.7157 28.3555 15.4717 27.1195 15.475 25.8719V25.8719C15.475 23.9901 16.0357 22.1506 17.0862 20.5863C18.1367 19.022 19.6297 17.8032 21.3762 17.0842C23.1227 16.3652 25.0441 16.1783 26.8973 16.5473C28.7505 16.9162 30.4521 17.8244 31.7867 19.1567C33.1213 20.4891 34.0289 22.1858 34.3945 24.0321C34.7602 25.8783 34.5675 27.7911 33.8409 29.5282C33.1142 31.2654 31.8863 32.7488 30.3125 33.7907C28.7387 34.8326 26.8899 35.3861 25 35.3812V35.3812ZM35 18.2297C34.4474 18.1714 33.9359 17.9116 33.5642 17.5002C33.1925 17.0889 32.9868 16.5551 32.9868 16.0017C32.9868 15.4484 33.1925 14.9146 33.5642 14.5032C33.9359 14.0919 34.4474 13.832 35 13.7738V13.7738C35.5526 13.832 36.0641 14.0919 36.4358 14.5032C36.8075 14.9146 37.0132 15.4484 37.0132 16.0017C37.0132 16.5551 36.8075 17.0889 36.4358 17.5002C36.0641 17.9116 35.5526 18.1714 35 18.2297Z" fill="#B78C83"/>
</svg>
