<svg width="50" height="51" viewBox="0 0 50 51" fill="none" xmlns="http://www.w3.org/2000/svg">
<path d="M50 12.3051C49.9719 11.2311 49.8885 10.1593 49.75 9.09385C49.5633 8.16066 49.2522 7.2565 48.825 6.40537C48.3782 5.4821 47.7781 4.64051 47.05 3.91605C46.3152 3.19963 45.4715 2.60315 44.55 2.14862C43.6941 1.73152 42.7861 1.43014 41.85 1.25246C40.7902 1.09439 39.7214 1.00293 38.65 0.978638H11.375C10.2964 1.00661 9.22001 1.0897 8.15 1.22757C7.21281 1.41344 6.30477 1.7232 5.45 2.14862C4.52276 2.59356 3.67757 3.19109 2.95 3.91605C2.23051 4.64769 1.63148 5.48779 1.175 6.40537C0.756111 7.25763 0.453434 8.16179 0.275 9.09385C0.116248 10.1492 0.0244002 11.2134 0 12.2802C0 12.7532 0 13.4253 0 13.6244V38.1194C0 38.3933 0 38.9907 0 39.4388C0.028091 40.5127 0.111534 41.5846 0.25 42.65C0.436671 43.5832 0.747758 44.4874 1.175 45.3385C1.62184 46.2618 2.22193 47.1033 2.95 47.8278C3.68478 48.5442 4.52849 49.1407 5.45 49.5952C6.30591 50.0123 7.21394 50.3137 8.15 50.4914C9.20984 50.6495 10.2786 50.7409 11.35 50.7652H38.625C39.7036 50.7372 40.78 50.6542 41.85 50.5163C42.7872 50.3304 43.6952 50.0207 44.55 49.5952C45.4772 49.1503 46.3224 48.5528 47.05 47.8278C47.7695 47.0962 48.3685 46.2561 48.825 45.3385C49.2439 44.4862 49.5466 43.5821 49.725 42.65C49.8837 41.5947 49.9756 40.5305 50 39.4637C50 38.9907 50 38.3933 50 38.1194V13.6244C50 13.4253 50 12.7532 50 12.3051ZM25.575 43.2972C22.5727 43.2825 19.6228 42.5118 17 41.0568L7.5 43.5462L10 34.2859C8.38778 31.5886 7.52496 28.5128 7.5 25.3741C7.50995 21.8465 8.56801 18.4007 10.5409 15.4708C12.5138 12.5408 15.3133 10.2577 18.5868 8.90893C21.8603 7.56018 25.4615 7.20612 28.9367 7.89135C32.4119 8.57658 35.6058 10.2705 38.1161 12.7596C40.6263 15.2488 42.3408 18.422 43.0434 21.8795C43.746 25.337 43.4054 28.9242 42.0645 32.1894C40.7236 35.4545 38.4423 38.2515 35.508 40.2282C32.5737 42.2048 29.1176 43.2727 25.575 43.2972V43.2972ZM25.575 10.6123C22.9245 10.6425 20.3294 11.3715 18.0539 12.7251C15.7784 14.0787 13.9037 16.0085 12.6207 18.3181C11.3378 20.6277 10.6924 23.2345 10.7502 25.8732C10.808 28.5119 11.5671 31.0883 12.95 33.3399L13.3 33.9125L11.8 39.3641L17.5 37.8207L18.05 38.1443C20.3239 39.478 22.911 40.1907 25.55 40.2105V40.2105C29.5282 40.2105 33.3436 38.6369 36.1566 35.8358C38.9696 33.0348 40.55 29.2358 40.55 25.2745C40.55 21.3132 38.9696 17.5142 36.1566 14.7132C33.3436 11.9121 29.5282 10.3385 25.55 10.3385L25.575 10.6123ZM34.325 31.8214C33.9976 32.3653 33.5591 32.8346 33.038 33.1991C32.517 33.5636 31.9248 33.8151 31.3 33.9374C30.3663 34.1073 29.4051 34.0475 28.5 33.7631C27.6484 33.498 26.8135 33.1821 26 32.8172C22.9094 31.2729 20.2736 28.9572 18.35 26.096C17.3047 24.7703 16.6705 23.1699 16.525 21.4907C16.5101 20.7932 16.6426 20.1003 16.914 19.457C17.1853 18.8138 17.5894 18.2345 18.1 17.7567C18.2504 17.5869 18.4349 17.4504 18.6416 17.3561C18.8483 17.2618 19.0726 17.2117 19.3 17.2091H20C20.275 17.2091 20.65 17.2091 21 17.9808C21.35 18.7524 22.275 21.0675 22.4 21.2916C22.4614 21.411 22.4935 21.5432 22.4935 21.6774C22.4935 21.8116 22.4614 21.9438 22.4 22.0633C22.2895 22.3338 22.1377 22.5857 21.95 22.8101C21.725 23.0839 21.475 23.4075 21.275 23.6066C21.075 23.8058 20.825 24.0547 21.075 24.5028C21.7552 25.6459 22.5972 26.6855 23.575 27.5896C24.6398 28.5264 25.8573 29.2757 27.175 29.8051C27.625 30.0291 27.9 30.0042 28.15 29.8051C28.4 29.6059 29.275 28.5106 29.575 28.0625C29.875 27.6145 30.175 27.6891 30.575 27.8385C30.975 27.9879 33.2 29.0583 33.65 29.2823C34.1 29.5063 34.375 29.6059 34.5 29.8051C34.6084 30.4566 34.5482 31.1249 34.325 31.7467V31.8214Z" fill="#B78C83"/>
</svg>
