<svg width="38" height="38" viewBox="0 0 38 38" fill="none" xmlns="http://www.w3.org/2000/svg">
<path d="M19.0839 0.666626C15.4423 0.666626 11.8826 1.74186 8.85473 3.75635C5.82689 5.77084 3.46698 8.63412 2.07341 11.9841C0.679853 15.3341 0.315233 19.0203 1.02567 22.5766C1.7361 26.1329 3.48967 29.3996 6.06464 31.9636C8.6396 34.5275 11.9203 36.2736 15.4919 36.981C19.0635 37.6884 22.7655 37.3254 26.1299 35.9378C29.4942 34.5501 32.3698 32.2003 34.3929 29.1854C36.4161 26.1705 37.4959 22.6259 37.4959 19C37.4961 16.5923 37.02 14.2083 36.0948 11.9839C35.1696 9.75947 33.8134 7.73834 32.1036 6.03589C30.3939 4.33344 28.3641 2.98303 26.1301 2.06176C23.8962 1.1405 21.5019 0.666426 19.0839 0.666626V0.666626ZM24.938 28.4462C24.8691 28.6173 24.7642 28.7717 24.6305 28.8992C24.4967 29.0266 24.3371 29.1241 24.1624 29.1852C23.9877 29.2462 23.8019 29.2693 23.6175 29.253C23.4331 29.2367 23.2543 29.1813 23.0931 29.0906L18.0949 25.2234L14.8869 28.1703C14.8125 28.2251 14.7254 28.2603 14.6337 28.2728C14.542 28.2852 14.4486 28.2746 14.3622 28.2417L14.9771 22.7628L14.9968 22.7784L15.0094 22.6702C15.0094 22.6702 24.0037 14.5164 24.3701 14.1691C24.741 13.8226 24.6186 13.7474 24.6186 13.7474C24.6397 13.3247 23.953 13.7474 23.953 13.7474L12.0358 21.3815L7.07284 19.6985C7.07284 19.6985 6.31058 19.4262 6.23877 18.8276C6.16329 18.2336 7.09768 17.911 7.09768 17.911L26.8298 10.1055C26.8298 10.1055 28.4519 9.3859 28.4519 10.5776L24.938 28.4462Z" fill="white"/>
</svg>
