<svg aria-hidden="true" width="20" height="34" viewBox="0 0 20 34" fill="none" xmlns="http://www.w3.org/2000/svg">
<path d="M18.85 15.2251L4.69995 1.10009C4.46755 0.86577 4.19104 0.679785 3.8864 0.552864C3.58175 0.425942 3.25498 0.360596 2.92495 0.360596C2.59492 0.360596 2.26816 0.425942 1.96351 0.552864C1.65886 0.679785 1.38236 0.86577 1.14995 1.10009C0.684327 1.5685 0.422974 2.20213 0.422974 2.86259C0.422974 3.52306 0.684327 4.15669 1.14995 4.62509L13.525 17.1251L1.14995 29.5001C0.684327 29.9685 0.422974 30.6021 0.422974 31.2626C0.422974 31.9231 0.684327 32.5567 1.14995 33.0251C1.38149 33.2613 1.6576 33.4492 1.96229 33.578C2.26698 33.7067 2.59419 33.7737 2.92495 33.7751C3.25572 33.7737 3.58293 33.7067 3.88762 33.578C4.19231 33.4492 4.46842 33.2613 4.69995 33.0251L18.85 18.9001C19.1037 18.666 19.3062 18.3819 19.4448 18.0656C19.5833 17.7494 19.6548 17.4078 19.6548 17.0626C19.6548 16.7173 19.5833 16.3758 19.4448 16.0596C19.3062 15.7433 19.1037 15.4592 18.85 15.2251V15.2251Z" fill="white"/>
</svg>
