<svg width="20" height="34" viewBox="0 0 20 34" fill="none" xmlns="http://www.w3.org/2000/svg">
<path d="M1.15 18.7749L15.3 32.8999C15.5324 33.1342 15.8089 33.3202 16.1136 33.4471C16.4182 33.5741 16.745 33.6394 17.075 33.6394C17.405 33.6394 17.7318 33.5741 18.0364 33.4471C18.3411 33.3202 18.6176 33.1342 18.85 32.8999C19.3156 32.4315 19.577 31.7979 19.577 31.1374C19.577 30.4769 19.3156 29.8433 18.85 29.3749L6.475 16.8749L18.85 4.49991C19.3156 4.0315 19.577 3.39787 19.577 2.73741C19.577 2.07695 19.3156 1.44332 18.85 0.97491C18.6185 0.738689 18.3424 0.550763 18.0377 0.422022C17.733 0.29328 17.4058 0.226285 17.075 0.224912C16.7442 0.226285 16.417 0.29328 16.1123 0.422022C15.8076 0.550763 15.5315 0.738689 15.3 0.97491L1.15 15.0999C0.896239 15.334 0.693718 15.6181 0.5552 15.9344C0.416681 16.2506 0.345169 16.5922 0.345169 16.9374C0.345169 17.2827 0.416681 17.6242 0.5552 17.9404C0.693718 18.2567 0.896239 18.5408 1.15 18.7749V18.7749Z" fill="white"/>
</svg>
