<svg width="38" height="38" viewBox="0 0 38 38" fill="none" xmlns="http://www.w3.org/2000/svg">
<path d="M24.6338 0.666626H13.3855C3.11115 0.666626 0.666748 3.11103 0.666748 13.3662V24.6145C0.666748 34.8888 3.09214 37.3333 13.3664 37.3333H24.6147C34.889 37.3333 37.3334 34.9079 37.3334 24.6336V13.3854C37.3334 3.11103 34.908 0.666626 24.6338 0.666626ZM30.2674 26.8298H27.5938C26.5817 26.8298 26.2761 26.0086 24.4619 24.1944C22.8768 22.6666 22.2084 22.4756 21.8074 22.4756C21.2536 22.4756 21.1007 22.6284 21.1007 23.3923V25.7985C21.1007 26.4479 20.8907 26.8298 19.1911 26.8298C17.5418 26.719 15.9424 26.2179 14.5247 25.368C13.107 24.518 11.9114 23.3434 11.0365 21.9409C8.95957 19.3557 7.51444 16.3216 6.8161 13.0798C6.8161 12.6787 6.96883 12.3159 7.73276 12.3159H10.4063C11.0938 12.3159 11.3421 12.6214 11.6095 13.3281C12.908 17.1475 15.1234 20.4704 16.0209 20.4704C16.3647 20.4704 16.5174 20.3177 16.5174 19.4583V15.5242C16.4028 13.7291 15.448 13.5763 15.448 12.927C15.4606 12.7558 15.5394 12.5961 15.6678 12.482C15.7961 12.3679 15.9639 12.3083 16.1355 12.3159H20.3369C20.9098 12.3159 21.1007 12.6023 21.1007 13.2898V18.5989C21.1007 19.1718 21.349 19.3627 21.5209 19.3627C21.8647 19.3627 22.132 19.1718 22.7622 18.5416C24.1165 16.8901 25.223 15.0502 26.047 13.0798C26.1311 12.8427 26.2905 12.6396 26.5008 12.5017C26.7112 12.3638 26.961 12.2985 27.2119 12.3159H29.8855C30.6876 12.3159 30.8595 12.7169 30.6876 13.2898C29.7148 15.4684 28.5111 17.5364 27.0973 19.4583C26.8109 19.8975 26.6963 20.1267 27.0973 20.6423C27.3647 21.0433 28.3005 21.8263 28.9307 22.5711C29.8473 23.4854 30.6085 24.5434 31.1841 25.7031C31.4132 26.4479 31.0313 26.8298 30.2674 26.8298V26.8298Z" fill="#FF7A00"/>
</svg>
